<svg xmlns="http://www.w3.org/2000/svg" width="1500" height="820" viewBox="0 0 1500 820">
  <defs>
    <style>
      .bg{fill:#050505}
      .edge{fill:#070707;stroke:#d7d75a;stroke-width:3}
      .silk{fill:none;stroke:#e8e45a;stroke-width:2}
      .silkText{font-family:Consolas,Arial,sans-serif;fill:#e8e45a;font-size:21px}
      .silkSmall{font-family:Consolas,Arial,sans-serif;fill:#e8e45a;font-size:16px}
      .top{fill:none;stroke:#f02a22;stroke-width:10;stroke-linecap:round;stroke-linejoin:round}
      .bot{fill:none;stroke:#064dff;stroke-width:10;stroke-linecap:round;stroke-linejoin:round}
      .thinTop{fill:none;stroke:#f02a22;stroke-width:6;stroke-linecap:round;stroke-linejoin:round}
      .thinBot{fill:none;stroke:#064dff;stroke-width:6;stroke-linecap:round;stroke-linejoin:round}
      .pad{fill:#9fefe6;stroke:#d469d8;stroke-width:4}
      .hole{fill:#5b7f79}
      .via{fill:#93f3eb;stroke:#d469d8;stroke-width:3}
      .keep{fill:none;stroke:#ff8a00;stroke-width:3;stroke-dasharray:14 9}
      .warn{font-family:Arial,sans-serif;fill:#ff8a00;font-size:17px;font-weight:700}
      .dim{font-family:Arial,sans-serif;fill:#9bb5bd;font-size:17px}
    </style>
  </defs>

  <rect class="bg" width="1500" height="820"/>

  <text class="dim" x="44" y="42">SAVE SWIMMER LITE - PCB LAYOUT MOCK V001 | visual conceptual tipo top/bottom | NO GERBER / NO FABRICACION</text>

  <!-- Board outline -->
  <rect class="edge" x="35" y="70" width="1430" height="650" rx="18"/>
  <text class="silkText" x="590" y="750">PCB CONCEPT 78 x 38 mm | TOP RED / BOTTOM BLUE | SILK YELLOW</text>

  <!-- mounting holes -->
  <g>
    <circle class="pad" cx="92" cy="126" r="38"/><circle class="hole" cx="92" cy="126" r="18"/><text class="silkText" x="82" y="135">0</text>
    <circle class="pad" cx="1408" cy="126" r="38"/><circle class="hole" cx="1408" cy="126" r="18"/><text class="silkText" x="1398" y="135">0</text>
    <circle class="pad" cx="92" cy="664" r="38"/><circle class="hole" cx="92" cy="664" r="18"/><text class="silkText" x="82" y="673">0</text>
    <circle class="pad" cx="1408" cy="664" r="38"/><circle class="hole" cx="1408" cy="664" r="18"/><text class="silkText" x="1398" y="673">0</text>
  </g>

  <!-- RF keepout -->
  <rect class="keep" x="70" y="205" width="235" height="295" rx="16"/>
  <text class="warn" x="102" y="232">RF KEEP OUT</text>
  <text class="silkSmall" x="92" y="260">ANT GSM/GNSS</text>
  <path class="silk" d="M106 452 C150 392, 220 392, 270 452"/>
  <path class="silk" d="M106 418 C150 368, 220 368, 270 418"/>
  <path class="silk" d="M106 386 C150 344, 220 344, 270 386"/>

  <!-- Main components silk -->
  <rect class="silk" x="355" y="140" width="260" height="210" rx="8"/>
  <text class="silkText" x="398" y="178">U1 ESP32-S3</text>
  <text class="silkSmall" x="400" y="204">WROOM N16R8</text>
  <rect class="silk" x="418" y="278" width="110" height="48"/>
  <text class="silkSmall" x="432" y="309">ANT KEEP</text>

  <rect class="silk" x="675" y="145" width="190" height="135" rx="8"/>
  <text class="silkText" x="708" y="186">U2 GSM</text>
  <text class="silkSmall" x="705" y="214">LTE/NB TBD</text>

  <rect class="silk" x="910" y="145" width="175" height="118" rx="8"/>
  <text class="silkText" x="945" y="186">U3 GNSS</text>
  <text class="silkSmall" x="940" y="214">GPS TBD</text>

  <rect class="silk" x="690" y="355" width="112" height="112" rx="8"/>
  <text class="silkText" x="715" y="398">U4</text>
  <text class="silkSmall" x="712" y="426">IMU</text>

  <rect class="silk" x="1120" y="142" width="160" height="112" rx="8"/>
  <text class="silkText" x="1142" y="184">J1 SD</text>
  <text class="silkSmall" x="1136" y="212">microSD DEV</text>

  <rect class="silk" x="1040" y="370" width="180" height="105" rx="8"/>
  <text class="silkText" x="1062" y="412">U5 PWR</text>
  <text class="silkSmall" x="1062" y="438">BUCK/BOOST</text>

  <rect class="silk" x="1240" y="365" width="150" height="112" rx="8"/>
  <text class="silkText" x="1260" y="407">U6 CHG</text>
  <text class="silkSmall" x="1257" y="435">LIPO</text>

  <rect class="silk" x="395" y="485" width="210" height="90" rx="8"/>
  <text class="silkText" x="420" y="525">J2 POGO</text>
  <text class="silkSmall" x="420" y="552">USB/UART/CHG</text>

  <!-- pads for ESP -->
  <g>
    <script type="application/ecmascript"><![CDATA[]]></script>
    <circle class="pad" cx="370" cy="168" r="11"/><circle class="hole" cx="370" cy="168" r="4"/>
    <circle class="pad" cx="370" cy="198" r="11"/><circle class="hole" cx="370" cy="198" r="4"/>
    <circle class="pad" cx="370" cy="228" r="11"/><circle class="hole" cx="370" cy="228" r="4"/>
    <circle class="pad" cx="370" cy="258" r="11"/><circle class="hole" cx="370" cy="258" r="4"/>
    <circle class="pad" cx="370" cy="288" r="11"/><circle class="hole" cx="370" cy="288" r="4"/>
    <circle class="pad" cx="370" cy="318" r="11"/><circle class="hole" cx="370" cy="318" r="4"/>
    <circle class="pad" cx="600" cy="168" r="11"/><circle class="hole" cx="600" cy="168" r="4"/>
    <circle class="pad" cx="600" cy="198" r="11"/><circle class="hole" cx="600" cy="198" r="4"/>
    <circle class="pad" cx="600" cy="228" r="11"/><circle class="hole" cx="600" cy="228" r="4"/>
    <circle class="pad" cx="600" cy="258" r="11"/><circle class="hole" cx="600" cy="258" r="4"/>
    <circle class="pad" cx="600" cy="288" r="11"/><circle class="hole" cx="600" cy="288" r="4"/>
    <circle class="pad" cx="600" cy="318" r="11"/><circle class="hole" cx="600" cy="318" r="4"/>
  </g>

  <!-- module pads -->
  <g>
    <circle class="pad" cx="694" cy="168" r="11"/><circle class="pad" cx="694" cy="202" r="11"/><circle class="pad" cx="694" cy="236" r="11"/>
    <circle class="pad" cx="846" cy="168" r="11"/><circle class="pad" cx="846" cy="202" r="11"/><circle class="pad" cx="846" cy="236" r="11"/>
    <circle class="pad" cx="930" cy="170" r="11"/><circle class="pad" cx="930" cy="205" r="11"/><circle class="pad" cx="1064" cy="170" r="11"/><circle class="pad" cx="1064" cy="205" r="11"/>
    <circle class="pad" cx="705" cy="382" r="11"/><circle class="pad" cx="705" cy="440" r="11"/><circle class="pad" cx="787" cy="382" r="11"/><circle class="pad" cx="787" cy="440" r="11"/>
  </g>

  <!-- SD pads -->
  <g>
    <circle class="pad" cx="1142" cy="166" r="11"/><circle class="pad" cx="1172" cy="166" r="11"/><circle class="pad" cx="1202" cy="166" r="11"/><circle class="pad" cx="1232" cy="166" r="11"/>
    <circle class="pad" cx="1142" cy="232" r="11"/><circle class="pad" cx="1172" cy="232" r="11"/><circle class="pad" cx="1202" cy="232" r="11"/><circle class="pad" cx="1232" cy="232" r="11"/>
  </g>

  <!-- POGO pads -->
  <g>
    <circle class="pad" cx="428" cy="540" r="18"/><circle class="hole" cx="428" cy="540" r="7"/>
    <circle class="pad" cx="468" cy="540" r="18"/><circle class="hole" cx="468" cy="540" r="7"/>
    <circle class="pad" cx="508" cy="540" r="18"/><circle class="hole" cx="508" cy="540" r="7"/>
    <circle class="pad" cx="548" cy="540" r="18"/><circle class="hole" cx="548" cy="540" r="7"/>
  </g>

  <!-- LED and water pads -->
  <g>
    <rect class="silk" x="1190" y="560" width="95" height="70"/><text class="silkSmall" x="1204" y="548">LED1</text>
    <circle class="pad" cx="1218" cy="595" r="16"/><circle class="pad" cx="1258" cy="595" r="16"/>
    <rect class="silk" x="1304" y="560" width="95" height="70"/><text class="silkSmall" x="1318" y="548">LED2</text>
    <circle class="pad" cx="1332" cy="595" r="16"/><circle class="pad" cx="1372" cy="595" r="16"/>
    <rect class="silk" x="80" y="552" width="140" height="65"/><text class="silkSmall" x="94" y="540">WATER</text>
    <circle class="pad" cx="118" cy="586" r="18"/><circle class="pad" cx="178" cy="586" r="18"/>
  </g>

  <!-- passives labels -->
  <g>
    <rect class="silk" x="285" y="144" width="58" height="24"/><text class="silkSmall" x="292" y="136">C1 104</text>
    <rect class="silk" x="285" y="188" width="58" height="24"/><text class="silkSmall" x="292" y="181">C2 10u</text>
    <rect class="silk" x="885" y="342" width="58" height="24"/><text class="silkSmall" x="890" y="334">R1 10K</text>
    <rect class="silk" x="885" y="384" width="58" height="24"/><text class="silkSmall" x="890" y="376">R2 4K7</text>
    <rect class="silk" x="980" y="520" width="58" height="24"/><text class="silkSmall" x="982" y="512">C8 104</text>
    <rect class="silk" x="1035" y="520" width="58" height="24"/><text class="silkSmall" x="1038" y="512">C9 22u</text>
    <rect class="silk" x="1110" y="520" width="58" height="24"/><text class="silkSmall" x="1112" y="512">L1</text>
  </g>

  <!-- Tracks top red -->
  <path class="top" d="M370 168 L315 168 L315 586 L178 586"/>
  <path class="top" d="M600 198 L676 198"/>
  <path class="top" d="M846 202 L910 205"/>
  <path class="top" d="M1064 205 L1120 232"/>
  <path class="top" d="M787 382 L980 382 L1040 410"/>
  <path class="top" d="M1218 595 L1160 595 L1095 475 L1040 432"/>
  <path class="thinTop" d="M428 540 L428 430 L600 288"/>
  <path class="thinTop" d="M468 540 L705 440"/>
  <path class="thinTop" d="M548 540 L620 620 L1332 595"/>
  <path class="top" d="M694 236 L620 236 L600 258"/>
  <path class="top" d="M705 382 L620 350 L600 318"/>

  <!-- Tracks bottom blue -->
  <path class="bot" d="M370 318 L260 318 L260 126 L92 126"/>
  <path class="bot" d="M600 168 L650 110 L930 170"/>
  <path class="bot" d="M846 236 L915 270 L1064 205"/>
  <path class="bot" d="M1142 166 L1100 118 L615 118"/>
  <path class="bot" d="M1232 232 L1320 232 L1320 126 L1408 126"/>
  <path class="thinBot" d="M508 540 L508 650 L1332 650 L1372 595"/>
  <path class="thinBot" d="M705 440 L640 470 L600 318"/>
  <path class="thinBot" d="M930 205 L865 355 L787 440"/>
  <path class="bot" d="M1040 410 L940 470 L548 540"/>
  <path class="bot" d="M118 586 L118 664 L92 664"/>

  <!-- vias -->
  <g>
    <circle class="via" cx="315" cy="168" r="10"/><circle class="hole" cx="315" cy="168" r="4"/>
    <circle class="via" cx="620" cy="236" r="10"/><circle class="hole" cx="620" cy="236" r="4"/>
    <circle class="via" cx="980" cy="382" r="10"/><circle class="hole" cx="980" cy="382" r="4"/>
    <circle class="via" cx="1160" cy="595" r="10"/><circle class="hole" cx="1160" cy="595" r="4"/>
    <circle class="via" cx="650" cy="110" r="10"/><circle class="hole" cx="650" cy="110" r="4"/>
    <circle class="via" cx="915" cy="270" r="10"/><circle class="hole" cx="915" cy="270" r="4"/>
    <circle class="via" cx="640" cy="470" r="10"/><circle class="hole" cx="640" cy="470" r="4"/>
    <circle class="via" cx="1320" cy="232" r="10"/><circle class="hole" cx="1320" cy="232" r="4"/>
  </g>

  <!-- notes -->
  <text class="warn" x="72" y="704">Visual conceptual: pistas y conexiones son representativas, no validadas electricamente.</text>
</svg>
