0
SECTION
2
ENTITIES
0
LINE
8
OUTLINE
10
37
20
0
11
36.979034617895
21
9.92435472042995
0
LINE
8
OUTLINE
10
36.979034617895
20
9.92435472042995
11
36.9160775345626
21
12.7299565751514
0
LINE
8
OUTLINE
10
36.9160775345626
20
12.7299565751514
11
36.8109444376715
21
14.7166571453937
0
LINE
8
OUTLINE
10
36.8109444376715
20
14.7166571453937
11
36.6633230618958
21
16.3008986044011
0
LINE
8
OUTLINE
10
36.6633230618958
20
16.3008986044011
11
36.4727653068748
21
17.6342859559896
0
LINE
8
OUTLINE
10
36.4727653068748
20
17.6342859559896
11
36.2386756486045
21
18.7912299302773
0
LINE
8
OUTLINE
10
36.2386756486045
20
18.7912299302773
11
35.9602952311267
21
19.8143718569816
0
LINE
8
OUTLINE
10
35.9602952311267
20
19.8143718569816
11
35.6366807559659
21
20.7306274040322
0
LINE
8
OUTLINE
10
35.6366807559659
20
20.7306274040322
11
35.2666769280824
21
21.5581518943071
0
LINE
8
OUTLINE
10
35.2666769280824
20
21.5581518943071
11
34.8488807238319
21
22.3097983791602
0
LINE
8
OUTLINE
10
34.8488807238319
20
22.3097983791602
11
34.381595049398
21
22.9950061444689
0
LINE
8
OUTLINE
10
34.381595049398
20
22.9950061444689
11
33.8627683489207
21
23.6209085869056
0
LINE
8
OUTLINE
10
33.8627683489207
20
23.6209085869056
11
33.2899152252159
21
24.1930204847156
0
LINE
8
OUTLINE
10
33.2899152252159
20
24.1930204847156
11
32.6600108627542
21
24.7156838961383
0
LINE
8
OUTLINE
10
32.6600108627542
20
24.7156838961383
11
31.9693484976599
21
25.1923682785417
0
LINE
8
OUTLINE
10
31.9693484976599
20
25.1923682785417
11
31.2133434898395
21
25.6258787505346
0
LINE
8
OUTLINE
10
31.2133434898395
20
25.6258787505346
11
30.3862581194767
21
26.0185043617066
0
LINE
8
OUTLINE
10
30.3862581194767
20
26.0185043617066
11
29.4808050010332
21
26.3721259531701
0
LINE
8
OUTLINE
10
29.4808050010332
20
26.3721259531701
11
28.4875578603343
21
26.688296053684
0
LINE
8
OUTLINE
10
28.4875578603343
20
26.688296053684
11
27.3940433553283
21
26.9682989504607
0
LINE
8
OUTLINE
10
27.3940433553283
20
26.9682989504607
11
26.1832770967257
21
27.2131963911229
0
LINE
8
OUTLINE
10
26.1832770967257
20
27.2131963911229
11
24.8312681221522
21
27.423862652998
0
LINE
8
OUTLINE
10
24.8312681221522
20
27.423862652998
11
23.3024492989863
21
27.6010115835809
0
LINE
8
OUTLINE
10
23.3024492989863
20
27.6010115835809
11
21.5404731558158
21
27.7452174522454
0
LINE
8
OUTLINE
10
21.5404731558158
20
27.7452174522454
11
19.4470112278417
21
27.8569309258055
0
LINE
8
OUTLINE
10
19.4470112278417
20
27.8569309258055
11
16.8217283314501
21
27.9364911072365
0
LINE
8
OUTLINE
10
16.8217283314501
20
27.9364911072365
11
13.1143258805681
21
27.9841343054341
0
LINE
8
OUTLINE
10
13.1143258805681
20
27.9841343054341
11
5.38901842765694E-05
21
28
0
LINE
8
OUTLINE
10
5.38901842765694E-05
20
28
11
-13.1143258805681
21
27.9841343054341
0
LINE
8
OUTLINE
10
-13.1143258805681
20
27.9841343054341
11
-16.8217283314501
21
27.9364911072365
0
LINE
8
OUTLINE
10
-16.8217283314501
20
27.9364911072365
11
-19.4470112278417
21
27.8569309258055
0
LINE
8
OUTLINE
10
-19.4470112278417
20
27.8569309258055
11
-21.5404731558158
21
27.7452174522454
0
LINE
8
OUTLINE
10
-21.5404731558158
20
27.7452174522454
11
-23.3024492989863
21
27.6010115835809
0
LINE
8
OUTLINE
10
-23.3024492989863
20
27.6010115835809
11
-24.8312681221522
21
27.423862652998
0
LINE
8
OUTLINE
10
-24.8312681221522
20
27.423862652998
11
-26.1832770967257
21
27.2131963911229
0
LINE
8
OUTLINE
10
-26.1832770967257
20
27.2131963911229
11
-27.3940433553283
21
26.9682989504607
0
LINE
8
OUTLINE
10
-27.3940433553283
20
26.9682989504607
11
-28.4875578603343
21
26.688296053684
0
LINE
8
OUTLINE
10
-28.4875578603343
20
26.688296053684
11
-29.4808050010332
21
26.3721259531701
0
LINE
8
OUTLINE
10
-29.4808050010332
20
26.3721259531701
11
-30.3862581194767
21
26.0185043617066
0
LINE
8
OUTLINE
10
-30.3862581194767
20
26.0185043617066
11
-31.2133434898395
21
25.6258787505346
0
LINE
8
OUTLINE
10
-31.2133434898395
20
25.6258787505346
11
-31.9693484976599
21
25.1923682785417
0
LINE
8
OUTLINE
10
-31.9693484976599
20
25.1923682785417
11
-32.6600108627542
21
24.7156838961383
0
LINE
8
OUTLINE
10
-32.6600108627542
20
24.7156838961383
11
-33.2899152252159
21
24.1930204847156
0
LINE
8
OUTLINE
10
-33.2899152252159
20
24.1930204847156
11
-33.8627683489207
21
23.6209085869056
0
LINE
8
OUTLINE
10
-33.8627683489207
20
23.6209085869056
11
-34.381595049398
21
22.9950061444689
0
LINE
8
OUTLINE
10
-34.381595049398
20
22.9950061444689
11
-34.8488807238319
21
22.3097983791602
0
LINE
8
OUTLINE
10
-34.8488807238319
20
22.3097983791602
11
-35.2666769280824
21
21.5581518943071
0
LINE
8
OUTLINE
10
-35.2666769280824
20
21.5581518943071
11
-35.6366807559659
21
20.7306274040322
0
LINE
8
OUTLINE
10
-35.6366807559659
20
20.7306274040322
11
-35.9602952311267
21
19.8143718569816
0
LINE
8
OUTLINE
10
-35.9602952311267
20
19.8143718569816
11
-36.2386756486045
21
18.7912299302773
0
LINE
8
OUTLINE
10
-36.2386756486045
20
18.7912299302773
11
-36.4727653068748
21
17.6342859559896
0
LINE
8
OUTLINE
10
-36.4727653068748
20
17.6342859559896
11
-36.6633230618958
21
16.3008986044011
0
LINE
8
OUTLINE
10
-36.6633230618958
20
16.3008986044011
11
-36.8109444376715
21
14.7166571453937
0
LINE
8
OUTLINE
10
-36.8109444376715
20
14.7166571453937
11
-36.9160775345626
21
12.7299565751514
0
LINE
8
OUTLINE
10
-36.9160775345626
20
12.7299565751514
11
-36.979034617895
21
9.92435472042995
0
LINE
8
OUTLINE
10
-36.979034617895
20
9.92435472042995
11
-37
21
5.23403683108006E-05
0
LINE
8
OUTLINE
10
-37
20
5.23403683108006E-05
11
-36.979034617895
21
-9.92435472042994
0
LINE
8
OUTLINE
10
-36.979034617895
20
-9.92435472042994
11
-36.9160775345626
21
-12.7299565751514
0
LINE
8
OUTLINE
10
-36.9160775345626
20
-12.7299565751514
11
-36.8109444376715
21
-14.7166571453937
0
LINE
8
OUTLINE
10
-36.8109444376715
20
-14.7166571453937
11
-36.6633230618958
21
-16.3008986044011
0
LINE
8
OUTLINE
10
-36.6633230618958
20
-16.3008986044011
11
-36.4727653068748
21
-17.6342859559896
0
LINE
8
OUTLINE
10
-36.4727653068748
20
-17.6342859559896
11
-36.2386756486045
21
-18.7912299302773
0
LINE
8
OUTLINE
10
-36.2386756486045
20
-18.7912299302773
11
-35.9602952311267
21
-19.8143718569816
0
LINE
8
OUTLINE
10
-35.9602952311267
20
-19.8143718569816
11
-35.6366807559659
21
-20.7306274040322
0
LINE
8
OUTLINE
10
-35.6366807559659
20
-20.7306274040322
11
-35.2666769280824
21
-21.5581518943071
0
LINE
8
OUTLINE
10
-35.2666769280824
20
-21.5581518943071
11
-34.8488807238319
21
-22.3097983791602
0
LINE
8
OUTLINE
10
-34.8488807238319
20
-22.3097983791602
11
-34.381595049398
21
-22.9950061444689
0
LINE
8
OUTLINE
10
-34.381595049398
20
-22.9950061444689
11
-33.8627683489207
21
-23.6209085869056
0
LINE
8
OUTLINE
10
-33.8627683489207
20
-23.6209085869056
11
-33.2899152252159
21
-24.1930204847156
0
LINE
8
OUTLINE
10
-33.2899152252159
20
-24.1930204847156
11
-32.6600108627542
21
-24.7156838961383
0
LINE
8
OUTLINE
10
-32.6600108627542
20
-24.7156838961383
11
-31.9693484976599
21
-25.1923682785417
0
LINE
8
OUTLINE
10
-31.9693484976599
20
-25.1923682785417
11
-31.2133434898395
21
-25.6258787505346
0
LINE
8
OUTLINE
10
-31.2133434898395
20
-25.6258787505346
11
-30.3862581194767
21
-26.0185043617066
0
LINE
8
OUTLINE
10
-30.3862581194767
20
-26.0185043617066
11
-29.4808050010332
21
-26.3721259531701
0
LINE
8
OUTLINE
10
-29.4808050010332
20
-26.3721259531701
11
-28.4875578603343
21
-26.688296053684
0
LINE
8
OUTLINE
10
-28.4875578603343
20
-26.688296053684
11
-27.3940433553283
21
-26.9682989504607
0
LINE
8
OUTLINE
10
-27.3940433553283
20
-26.9682989504607
11
-26.1832770967257
21
-27.2131963911229
0
LINE
8
OUTLINE
10
-26.1832770967257
20
-27.2131963911229
11
-24.8312681221522
21
-27.423862652998
0
LINE
8
OUTLINE
10
-24.8312681221522
20
-27.423862652998
11
-23.3024492989863
21
-27.6010115835809
0
LINE
8
OUTLINE
10
-23.3024492989863
20
-27.6010115835809
11
-21.5404731558158
21
-27.7452174522454
0
LINE
8
OUTLINE
10
-21.5404731558158
20
-27.7452174522454
11
-19.4470112278417
21
-27.8569309258055
0
LINE
8
OUTLINE
10
-19.4470112278417
20
-27.8569309258055
11
-16.8217283314501
21
-27.9364911072365
0
LINE
8
OUTLINE
10
-16.8217283314501
20
-27.9364911072365
11
-13.1143258805681
21
-27.9841343054341
0
LINE
8
OUTLINE
10
-13.1143258805681
20
-27.9841343054341
11
-8.00337783835851E-05
21
-28
0
LINE
8
OUTLINE
10
-8.00337783835851E-05
20
-28
11
13.1143258805682
21
-27.9841343054341
0
LINE
8
OUTLINE
10
13.1143258805682
20
-27.9841343054341
11
16.8217283314501
21
-27.9364911072365
0
LINE
8
OUTLINE
10
16.8217283314501
20
-27.9364911072365
11
19.4470112278416
21
-27.8569309258055
0
LINE
8
OUTLINE
10
19.4470112278416
20
-27.8569309258055
11
21.5404731558157
21
-27.7452174522455
0
LINE
8
OUTLINE
10
21.5404731558157
20
-27.7452174522455
11
23.3024492989863
21
-27.6010115835809
0
LINE
8
OUTLINE
10
23.3024492989863
20
-27.6010115835809
11
24.8312681221522
21
-27.423862652998
0
LINE
8
OUTLINE
10
24.8312681221522
20
-27.423862652998
11
26.1832770967257
21
-27.2131963911229
0
LINE
8
OUTLINE
10
26.1832770967257
20
-27.2131963911229
11
27.3940433553283
21
-26.9682989504607
0
LINE
8
OUTLINE
10
27.3940433553283
20
-26.9682989504607
11
28.4875578603343
21
-26.688296053684
0
LINE
8
OUTLINE
10
28.4875578603343
20
-26.688296053684
11
29.4808050010332
21
-26.3721259531701
0
LINE
8
OUTLINE
10
29.4808050010332
20
-26.3721259531701
11
30.3862581194767
21
-26.0185043617066
0
LINE
8
OUTLINE
10
30.3862581194767
20
-26.0185043617066
11
31.2133434898395
21
-25.6258787505346
0
LINE
8
OUTLINE
10
31.2133434898395
20
-25.6258787505346
11
31.9693484976599
21
-25.1923682785417
0
LINE
8
OUTLINE
10
31.9693484976599
20
-25.1923682785417
11
32.6600108627542
21
-24.7156838961383
0
LINE
8
OUTLINE
10
32.6600108627542
20
-24.7156838961383
11
33.2899152252159
21
-24.1930204847156
0
LINE
8
OUTLINE
10
33.2899152252159
20
-24.1930204847156
11
33.8627683489207
21
-23.6209085869056
0
LINE
8
OUTLINE
10
33.8627683489207
20
-23.6209085869056
11
34.381595049398
21
-22.9950061444689
0
LINE
8
OUTLINE
10
34.381595049398
20
-22.9950061444689
11
34.8488807238319
21
-22.3097983791602
0
LINE
8
OUTLINE
10
34.8488807238319
20
-22.3097983791602
11
35.2666769280824
21
-21.5581518943071
0
LINE
8
OUTLINE
10
35.2666769280824
20
-21.5581518943071
11
35.636680755966
21
-20.7306274040322
0
LINE
8
OUTLINE
10
35.636680755966
20
-20.7306274040322
11
35.9602952311267
21
-19.8143718569816
0
LINE
8
OUTLINE
10
35.9602952311267
20
-19.8143718569816
11
36.2386756486045
21
-18.7912299302773
0
LINE
8
OUTLINE
10
36.2386756486045
20
-18.7912299302773
11
36.4727653068748
21
-17.6342859559897
0
LINE
8
OUTLINE
10
36.4727653068748
20
-17.6342859559897
11
36.6633230618958
21
-16.3008986044011
0
LINE
8
OUTLINE
10
36.6633230618958
20
-16.3008986044011
11
36.8109444376715
21
-14.7166571453937
0
LINE
8
OUTLINE
10
36.8109444376715
20
-14.7166571453937
11
36.9160775345626
21
-12.7299565751515
0
LINE
8
OUTLINE
10
36.9160775345626
20
-12.7299565751515
11
36.979034617895
21
-9.92435472042993
0
LINE
8
OUTLINE
10
36.979034617895
20
-9.92435472042993
11
37
21
0
0
LINE
8
CLIP
10
-21
20
-23
11
21
21
-23
0
LINE
8
CLIP
10
-21
20
23
11
21
21
23
0
CIRCLE
8
SCREW_MARKERS
10
-25
20
-17
40
1.7
0
CIRCLE
8
SCREW_MARKERS
10
-25
20
17
40
1.7
0
CIRCLE
8
SCREW_MARKERS
10
25
20
-17
40
1.7
0
CIRCLE
8
SCREW_MARKERS
10
25
20
17
40
1.7
0
ENDSEC
0
EOF
