<svg xmlns="http://www.w3.org/2000/svg" width="1080" height="1920" viewBox="0 0 1080 1920">
  <defs>
    <style>
      .bg{fill:#020b10}
      .card{fill:#0d2832;stroke:#1c5564;stroke-width:2}
      .panel{fill:#06171d;stroke:#174451;stroke-width:2}
      .water{stroke:#2b5a66;stroke-width:5;opacity:.85}
      .guide{stroke:#2b5a66;stroke-width:2;opacity:.55}
      .txt{font-family:Arial, Helvetica, sans-serif;fill:#eaf8fb}
      .muted{fill:#a8c0c6}
      .cyan{fill:#2fd8e8}
      .orange{fill:#ff7a1a}
      .green{fill:#5df0a0}
      .body{fill:#123846;stroke:#eaf8fb;stroke-width:7;stroke-linecap:round;stroke-linejoin:round}
      .body-line{fill:none;stroke:#eaf8fb;stroke-width:9;stroke-linecap:round;stroke-linejoin:round}
      .arm-under{fill:none;stroke:#8ab7c0;stroke-width:12;stroke-linecap:round;stroke-linejoin:round;opacity:.42}
      .tech{stroke:#2fd8e8;stroke-width:9;fill:none;stroke-linecap:round;stroke-linejoin:round}
      .tech-soft{stroke:#2fd8e8;stroke-width:4;fill:none;stroke-linecap:round;opacity:.22}
      .mag{stroke:#5df0a0;stroke-width:5;fill:none;stroke-linecap:round;stroke-linejoin:round}
      .dash{stroke-dasharray:16 12}
    </style>
  </defs>

  <rect class="bg" width="1080" height="1920"/>

  <text class="txt" x="60" y="112" font-size="64" font-weight="700" letter-spacing="8">SAVE SWIMMER</text>
  <text class="cyan" x="60" y="168" font-size="34" font-weight="700" letter-spacing="5">LECTURA CORPORAL</text>
  <rect x="720" y="82" width="285" height="72" rx="8" fill="#10313c" stroke="#1d5968"/>
  <circle cx="760" cy="118" r="9" class="green"/>
  <text class="txt" x="780" y="130" font-size="28" font-weight="700">BLE + GPS activo</text>

  <rect class="card" x="48" y="210" width="984" height="575" rx="10"/>
  <text class="txt muted" x="80" y="270" font-size="31">Rotacion dorsal</text>
  <text class="txt" x="80" y="318" font-size="44" font-weight="700">Hombros contra linea de agua</text>
  <rect class="panel" x="80" y="350" width="920" height="365" rx="6"/>

  <line class="water" x1="120" y1="525" x2="960" y2="525"/>
  <text class="muted txt" x="132" y="506" font-size="24">linea de agua / eje 0</text>
  <line class="guide dash" x1="150" y1="455" x2="930" y2="455"/>
  <line class="guide dash" x1="150" y1="595" x2="930" y2="595"/>
  <text class="green txt" x="155" y="442" font-size="24">zona ideal 32-45 grados</text>
  <text class="orange txt" x="742" y="442" font-size="24">exceso +50 grados</text>

  <!-- Simple, readable swimmer. Arms are faded so shoulders are the main signal. -->
  <path class="arm-under" d="M250 548 C330 520 410 515 492 530"/>
  <path class="arm-under" d="M588 530 C690 548 790 548 895 522"/>
  <ellipse class="body" cx="540" cy="555" rx="168" ry="88"/>
  <circle class="body" cx="540" cy="455" r="66"/>
  <path class="body-line" d="M468 412 C510 384 570 384 612 412"/>

  <!-- Shoulder points and rotation overlay -->
  <line class="tech-soft" x1="365" y1="548" x2="715" y2="503"/>
  <line class="tech-soft" x1="372" y1="506" x2="708" y2="570"/>
  <line class="tech" x1="365" y1="575" x2="715" y2="505"/>
  <circle cx="365" cy="575" r="18" class="orange"/>
  <circle cx="715" cy="505" r="18" class="cyan"/>
  <text class="orange txt" x="165" y="620" font-size="27" font-weight="700">hombro izq bajo</text>
  <text class="cyan txt" x="735" y="505" font-size="27" font-weight="700">hombro der alto</text>
  <path d="M782 523 A230 230 0 0 0 714 488" fill="none" stroke="#2fd8e8" stroke-width="5"/>
  <text class="cyan txt" x="805" y="538" font-size="32" font-weight="700">38°</text>
  <text class="muted txt" x="80" y="754" font-size="28">La linea cyan mide el rolido. Los brazos quedan de fondo para no confundir.</text>

  <rect class="card" x="48" y="825" width="984" height="440" rx="10"/>
  <text class="txt muted" x="80" y="885" font-size="31">Alineacion corporal</text>
  <text class="txt" x="80" y="933" font-size="44" font-weight="700">Cuerpo horizontal y piernas alineadas</text>
  <rect class="panel" x="80" y="965" width="920" height="240" rx="6"/>
  <line class="water" x1="120" y1="1085" x2="960" y2="1085"/>
  <text class="muted txt" x="132" y="1066" font-size="24">linea de flotacion</text>
  <line x1="175" y1="1085" x2="905" y2="1085" stroke="#5df0a0" stroke-width="5" class="dash" opacity=".65"/>
  <circle class="body" cx="215" cy="1060" r="38"/>
  <ellipse class="body" cx="410" cy="1065" rx="130" ry="46"/>
  <path class="tech" d="M200 1060 C325 1028 455 1046 575 1084 C690 1120 800 1134 910 1120"/>
  <circle cx="575" cy="1084" r="18" class="cyan"/>
  <text class="green txt" x="150" y="1164" font-size="27" font-weight="700">alineacion estable</text>
  <text class="muted txt" x="455" y="1164" font-size="25">si las piernas caen, aumenta resistencia</text>

  <rect class="card" x="48" y="1305" width="984" height="300" rx="10"/>
  <text class="txt muted" x="80" y="1365" font-size="31">Impulso MAG</text>
  <text class="txt" x="80" y="1413" font-size="44" font-weight="700">Empuje y energia del movimiento</text>
  <rect class="panel" x="80" y="1445" width="920" height="110" rx="6"/>
  <line class="guide" x1="120" y1="1500" x2="960" y2="1500"/>
  <path class="mag" d="M125 1528 L165 1508 L205 1472 L245 1520 L285 1510 L325 1460 L365 1500 L405 1518 L445 1488 L485 1530 L525 1496 L565 1464 L605 1510 L645 1522 L685 1480 L725 1460 L765 1512 L805 1508 L845 1472 L885 1500 L945 1480"/>

  <rect x="48" y="1645" width="984" height="220" rx="10" fill="#0d2832" stroke="#1c5564" stroke-width="2"/>
  <text class="cyan txt" x="80" y="1713" font-size="34" font-weight="700">Lectura simple</text>
  <text class="txt" x="80" y="1773" font-size="38" font-weight="700">Rotacion visible y dentro del objetivo.</text>
  <text class="txt" x="80" y="1823" font-size="38" font-weight="700">Alineacion estable. Impulso normal.</text>
</svg>
