0
SECTION
2
ENTITIES
0
LINE
8
OUTLINE
10
47.5
20
0
11
47.4572589667165
21
8.74750250430014
0
LINE
8
OUTLINE
10
47.4572589667165
20
8.74750250430014
11
47.3288996228633
21
11.6929936732004
0
LINE
8
OUTLINE
10
47.3288996228633
20
11.6929936732004
11
47.1145084181009
21
13.8430471642576
0
LINE
8
OUTLINE
10
47.1145084181009
20
13.8430471642576
11
46.8133797219761
21
15.5880256112091
0
LINE
8
OUTLINE
10
46.8133797219761
20
15.5880256112091
11
46.4244901007555
21
17.0731775432659
0
LINE
8
OUTLINE
10
46.4244901007555
20
17.0731775432659
11
45.9464598559821
21
18.3706850354917
0
LINE
8
OUTLINE
10
45.9464598559821
20
18.3706850354917
11
45.3774990159984
21
19.5222173727399
0
LINE
8
OUTLINE
10
45.3774990159984
20
19.5222173727399
11
44.7153335763774
21
20.5541771687304
0
LINE
8
OUTLINE
10
44.7153335763774
20
20.5541771687304
11
43.9571057825219
21
21.4843916437129
0
LINE
8
OUTLINE
10
43.9571057825219
20
21.4843916437129
11
43.0992392616577
21
22.3254636776979
0
LINE
8
OUTLINE
10
43.0992392616577
20
22.3254636776979
11
42.1372552074926
21
23.0866149980365
0
LINE
8
OUTLINE
10
42.1372552074926
20
23.0866149980365
11
41.0655184871236
21
23.7747738609663
0
LINE
8
OUTLINE
10
41.0655184871236
20
23.7747738609663
11
39.876880451154
21
24.3952530148641
0
LINE
8
OUTLINE
10
39.876880451154
20
24.3952530148641
11
38.5621645342054
21
24.952191151486
0
LINE
8
OUTLINE
10
38.5621645342054
20
24.952191151486
11
37.1094037482313
21
25.4488507161969
0
LINE
8
OUTLINE
10
37.1094037482313
20
25.4488507161969
11
35.5026696550798
21
25.8878247021132
0
LINE
8
OUTLINE
10
35.5026696550798
20
25.8878247021132
11
33.7201936438235
21
26.2711836408412
0
LINE
8
OUTLINE
10
33.7201936438235
20
26.2711836408412
11
31.7311832431221
21
26.6005820218844
0
LINE
8
OUTLINE
10
31.7311832431221
20
26.6005820218844
11
29.4900339383684
21
26.8773363741216
0
LINE
8
OUTLINE
10
29.4900339383684
20
26.8773363741216
11
26.9247715102702
21
27.1024829969335
0
LINE
8
OUTLINE
10
26.9247715102702
20
27.1024829969335
11
23.9107178291722
21
27.276820663111
0
LINE
8
OUTLINE
10
23.9107178291722
20
27.276820663111
11
20.1969890718917
21
27.4009418869209
0
LINE
8
OUTLINE
10
20.1969890718917
20
27.4009418869209
11
15.1093225074275
21
27.4752551912569
0
LINE
8
OUTLINE
10
15.1093225074275
20
27.4752551912569
11
7.36579359734823E-06
21
27.5
0
LINE
8
OUTLINE
10
7.36579359734823E-06
20
27.5
11
-15.1093225074275
21
27.4752551912569
0
LINE
8
OUTLINE
10
-15.1093225074275
20
27.4752551912569
11
-20.1969890718917
21
27.4009418869209
0
LINE
8
OUTLINE
10
-20.1969890718917
20
27.4009418869209
11
-23.9107178291722
21
27.276820663111
0
LINE
8
OUTLINE
10
-23.9107178291722
20
27.276820663111
11
-26.9247715102702
21
27.1024829969335
0
LINE
8
OUTLINE
10
-26.9247715102702
20
27.1024829969335
11
-29.4900339383684
21
26.8773363741216
0
LINE
8
OUTLINE
10
-29.4900339383684
20
26.8773363741216
11
-31.7311832431221
21
26.6005820218844
0
LINE
8
OUTLINE
10
-31.7311832431221
20
26.6005820218844
11
-33.7201936438235
21
26.2711836408412
0
LINE
8
OUTLINE
10
-33.7201936438235
20
26.2711836408412
11
-35.5026696550798
21
25.8878247021132
0
LINE
8
OUTLINE
10
-35.5026696550798
20
25.8878247021132
11
-37.1094037482313
21
25.4488507161969
0
LINE
8
OUTLINE
10
-37.1094037482313
20
25.4488507161969
11
-38.5621645342054
21
24.952191151486
0
LINE
8
OUTLINE
10
-38.5621645342054
20
24.952191151486
11
-39.876880451154
21
24.3952530148641
0
LINE
8
OUTLINE
10
-39.876880451154
20
24.3952530148641
11
-41.0655184871236
21
23.7747738609663
0
LINE
8
OUTLINE
10
-41.0655184871236
20
23.7747738609663
11
-42.1372552074925
21
23.0866149980365
0
LINE
8
OUTLINE
10
-42.1372552074925
20
23.0866149980365
11
-43.0992392616577
21
22.3254636776979
0
LINE
8
OUTLINE
10
-43.0992392616577
20
22.3254636776979
11
-43.9571057825219
21
21.4843916437129
0
LINE
8
OUTLINE
10
-43.9571057825219
20
21.4843916437129
11
-44.7153335763774
21
20.5541771687304
0
LINE
8
OUTLINE
10
-44.7153335763774
20
20.5541771687304
11
-45.3774990159984
21
19.52221737274
0
LINE
8
OUTLINE
10
-45.3774990159984
20
19.52221737274
11
-45.9464598559821
21
18.3706850354917
0
LINE
8
OUTLINE
10
-45.9464598559821
20
18.3706850354917
11
-46.4244901007555
21
17.0731775432659
0
LINE
8
OUTLINE
10
-46.4244901007555
20
17.0731775432659
11
-46.8133797219761
21
15.5880256112091
0
LINE
8
OUTLINE
10
-46.8133797219761
20
15.5880256112091
11
-47.1145084181009
21
13.8430471642576
0
LINE
8
OUTLINE
10
-47.1145084181009
20
13.8430471642576
11
-47.3288996228633
21
11.6929936732005
0
LINE
8
OUTLINE
10
-47.3288996228633
20
11.6929936732005
11
-47.4572589667165
21
8.74750250430014
0
LINE
8
OUTLINE
10
-47.4572589667165
20
8.74750250430014
11
-47.5
21
5.70546738865013E-06
0
LINE
8
OUTLINE
10
-47.5
20
5.70546738865013E-06
11
-47.4572589667165
21
-8.74750250430013
0
LINE
8
OUTLINE
10
-47.4572589667165
20
-8.74750250430013
11
-47.3288996228633
21
-11.6929936732004
0
LINE
8
OUTLINE
10
-47.3288996228633
20
-11.6929936732004
11
-47.1145084181009
21
-13.8430471642576
0
LINE
8
OUTLINE
10
-47.1145084181009
20
-13.8430471642576
11
-46.8133797219761
21
-15.5880256112091
0
LINE
8
OUTLINE
10
-46.8133797219761
20
-15.5880256112091
11
-46.4244901007555
21
-17.0731775432659
0
LINE
8
OUTLINE
10
-46.4244901007555
20
-17.0731775432659
11
-45.9464598559821
21
-18.3706850354917
0
LINE
8
OUTLINE
10
-45.9464598559821
20
-18.3706850354917
11
-45.3774990159984
21
-19.5222173727399
0
LINE
8
OUTLINE
10
-45.3774990159984
20
-19.5222173727399
11
-44.7153335763774
21
-20.5541771687304
0
LINE
8
OUTLINE
10
-44.7153335763774
20
-20.5541771687304
11
-43.9571057825219
21
-21.4843916437129
0
LINE
8
OUTLINE
10
-43.9571057825219
20
-21.4843916437129
11
-43.0992392616577
21
-22.3254636776979
0
LINE
8
OUTLINE
10
-43.0992392616577
20
-22.3254636776979
11
-42.1372552074926
21
-23.0866149980365
0
LINE
8
OUTLINE
10
-42.1372552074926
20
-23.0866149980365
11
-41.0655184871236
21
-23.7747738609663
0
LINE
8
OUTLINE
10
-41.0655184871236
20
-23.7747738609663
11
-39.876880451154
21
-24.3952530148641
0
LINE
8
OUTLINE
10
-39.876880451154
20
-24.3952530148641
11
-38.5621645342054
21
-24.952191151486
0
LINE
8
OUTLINE
10
-38.5621645342054
20
-24.952191151486
11
-37.1094037482313
21
-25.4488507161969
0
LINE
8
OUTLINE
10
-37.1094037482313
20
-25.4488507161969
11
-35.5026696550798
21
-25.8878247021132
0
LINE
8
OUTLINE
10
-35.5026696550798
20
-25.8878247021132
11
-33.7201936438235
21
-26.2711836408412
0
LINE
8
OUTLINE
10
-33.7201936438235
20
-26.2711836408412
11
-31.7311832431221
21
-26.6005820218844
0
LINE
8
OUTLINE
10
-31.7311832431221
20
-26.6005820218844
11
-29.4900339383684
21
-26.8773363741216
0
LINE
8
OUTLINE
10
-29.4900339383684
20
-26.8773363741216
11
-26.9247715102702
21
-27.1024829969335
0
LINE
8
OUTLINE
10
-26.9247715102702
20
-27.1024829969335
11
-23.9107178291722
21
-27.276820663111
0
LINE
8
OUTLINE
10
-23.9107178291722
20
-27.276820663111
11
-20.1969890718917
21
-27.4009418869209
0
LINE
8
OUTLINE
10
-20.1969890718917
20
-27.4009418869209
11
-15.1093225074275
21
-27.4752551912569
0
LINE
8
OUTLINE
10
-15.1093225074275
20
-27.4752551912569
11
-1.16845091221138E-05
21
-27.5
0
LINE
8
OUTLINE
10
-1.16845091221138E-05
20
-27.5
11
15.1093225074274
21
-27.4752551912569
0
LINE
8
OUTLINE
10
15.1093225074274
20
-27.4752551912569
11
20.1969890718916
21
-27.4009418869209
0
LINE
8
OUTLINE
10
20.1969890718916
20
-27.4009418869209
11
23.9107178291722
21
-27.276820663111
0
LINE
8
OUTLINE
10
23.9107178291722
20
-27.276820663111
11
26.9247715102702
21
-27.1024829969335
0
LINE
8
OUTLINE
10
26.9247715102702
20
-27.1024829969335
11
29.4900339383684
21
-26.8773363741216
0
LINE
8
OUTLINE
10
29.4900339383684
20
-26.8773363741216
11
31.7311832431221
21
-26.6005820218844
0
LINE
8
OUTLINE
10
31.7311832431221
20
-26.6005820218844
11
33.7201936438235
21
-26.2711836408412
0
LINE
8
OUTLINE
10
33.7201936438235
20
-26.2711836408412
11
35.5026696550798
21
-25.8878247021132
0
LINE
8
OUTLINE
10
35.5026696550798
20
-25.8878247021132
11
37.1094037482313
21
-25.4488507161969
0
LINE
8
OUTLINE
10
37.1094037482313
20
-25.4488507161969
11
38.5621645342054
21
-24.952191151486
0
LINE
8
OUTLINE
10
38.5621645342054
20
-24.952191151486
11
39.876880451154
21
-24.3952530148641
0
LINE
8
OUTLINE
10
39.876880451154
20
-24.3952530148641
11
41.0655184871236
21
-23.7747738609663
0
LINE
8
OUTLINE
10
41.0655184871236
20
-23.7747738609663
11
42.1372552074926
21
-23.0866149980365
0
LINE
8
OUTLINE
10
42.1372552074926
20
-23.0866149980365
11
43.0992392616577
21
-22.3254636776979
0
LINE
8
OUTLINE
10
43.0992392616577
20
-22.3254636776979
11
43.9571057825218
21
-21.4843916437129
0
LINE
8
OUTLINE
10
43.9571057825218
20
-21.4843916437129
11
44.7153335763773
21
-20.5541771687304
0
LINE
8
OUTLINE
10
44.7153335763773
20
-20.5541771687304
11
45.3774990159984
21
-19.5222173727399
0
LINE
8
OUTLINE
10
45.3774990159984
20
-19.5222173727399
11
45.9464598559821
21
-18.3706850354917
0
LINE
8
OUTLINE
10
45.9464598559821
20
-18.3706850354917
11
46.4244901007555
21
-17.0731775432659
0
LINE
8
OUTLINE
10
46.4244901007555
20
-17.0731775432659
11
46.8133797219761
21
-15.5880256112091
0
LINE
8
OUTLINE
10
46.8133797219761
20
-15.5880256112091
11
47.1145084181009
21
-13.8430471642576
0
LINE
8
OUTLINE
10
47.1145084181009
20
-13.8430471642576
11
47.3288996228633
21
-11.6929936732004
0
LINE
8
OUTLINE
10
47.3288996228633
20
-11.6929936732004
11
47.4572589667165
21
-8.74750250430013
0
LINE
8
OUTLINE
10
47.4572589667165
20
-8.74750250430013
11
47.5
21
0
0
CIRCLE
8
SCREW_MARKERS
10
-30
20
-14
40
1.8
0
CIRCLE
8
SCREW_MARKERS
10
-30
20
14
40
1.8
0
CIRCLE
8
SCREW_MARKERS
10
30
20
-14
40
1.8
0
CIRCLE
8
SCREW_MARKERS
10
30
20
14
40
1.8
0
LINE
8
STRAP
10
-52
20
-11
11
52
21
-11
0
LINE
8
STRAP
10
-52
20
11
11
52
21
11
0
ENDSEC
0
EOF
